<svg xmlns="http://www.w3.org/2000/svg" viewBox="0 0 100 88"><defs><radialGradient id="b" cx="38%" cy="28%" r="80%"><stop offset="0" stop-color="#ffffff"/><stop offset=".6" stop-color="#f8f3ee"/><stop offset="1" stop-color="#ebe1d8"/></radialGradient></defs><ellipse cx="50" cy="83" rx="36" ry="3.6" fill="rgb(45 60 40 / .14)"/><path d="M11 69C8 46 25 24 50 24C75 24 92 46 89 69C87 79 72 82 50 82C28 82 13 79 11 69Z" fill="url(#b)" stroke="#2d332e" stroke-width="2.4" stroke-linejoin="round"/><path d="M22 50c2-9 9-17 19-20" stroke="#fff" stroke-width="3.4" stroke-linecap="round" fill="none" opacity=".85"/><ellipse cx="32" cy="60" rx="5" ry="3" fill="#f6a9b9" opacity=".75"/><ellipse cx="68" cy="60" rx="5" ry="3" fill="#f6a9b9" opacity=".75"/><ellipse cx="39" cy="54" rx="3.1" ry="4" fill="#2d332e"/><ellipse cx="61" cy="54" rx="3.1" ry="4" fill="#2d332e"/><circle cx="40" cy="52.4" r="1.1" fill="#fff"/><circle cx="62" cy="52.4" r="1.1" fill="#fff"/><path d="M45 61q2.5 3 5 0q2.5 3 5 0" fill="none" stroke="#2d332e" stroke-width="2" stroke-linecap="round" stroke-linejoin="round"/></svg>